<?xml version="1.0" standalone="no"?>
<!DOCTYPE svg PUBLIC "-//W3C//DTD SVG 20010904//EN"
 "http://www.w3.org/TR/2001/REC-SVG-20010904/DTD/svg10.dtd">
<svg version="1.0" xmlns="http://www.w3.org/2000/svg"
 width="700.000000pt" height="700.000000pt" viewBox="0 0 700.000000 700.000000"
 preserveAspectRatio="xMidYMid meet">
<metadata>
Created by potrace 1.14, written by Peter Selinger 2001-2017
</metadata>
<g transform="translate(0.000000,700.000000) scale(0.100000,-0.100000)"
fill="#000000" stroke="none">
<path d="M3445 6981 c-52 -23 -102 -81 -111 -126 -16 -85 26 -171 101 -207
l45 -22 0 -367 0 -366 -87 -7 c-489 -38 -945 -272 -1256 -644 -65 -76 -66 -77
-149 -101 -241 -70 -617 -233 -844 -366 -293 -172 -548 -381 -732 -600 -83
-98 -257 -358 -267 -397 -10 -40 12 -79 95 -159 68 -67 95 -86 202 -138 67
-33 178 -78 245 -100 396 -132 1035 -240 1723 -291 80 -6 195 -16 255 -21 169
-15 1227 -23 1470 -10 1160 58 2033 209 2460 424 203 102 287 205 266 324 -25
136 -330 506 -581 707 -219 175 -565 375 -857 494 -67 28 -200 76 -295 107
-95 31 -179 64 -186 73 -257 332 -635 571 -1047 662 -49 11 -145 25 -212 32
l-123 12 0 368 0 368 40 20 c70 36 111 123 96 205 -13 69 -107 145 -181 145
-16 0 -48 -9 -70 -19z m72 -1068 c-3 -10 -5 -2 -5 17 0 19 2 27 5 18 2 -10 2
-26 0 -35z m375 -594 c891 -61 1716 -339 2292 -773 250 -188 458 -410 590
-631 20 -32 34 -60 33 -61 -2 -2 -56 17 -121 41 -677 257 -1548 466 -2316 554
-607 71 -1291 80 -1830 25 -799 -80 -1515 -270 -2192 -579 -76 -35 -138 -61
-138 -58 0 16 156 240 222 318 537 641 1536 1073 2688 1164 156 12 597 12 772
0z"/>
<path d="M3382 5075 c-69 -19 -105 -39 -154 -83 -137 -124 -57 -288 169 -347
219 -57 473 56 473 212 0 87 -50 146 -165 199 -51 24 -76 28 -165 31 -71 2
-122 -2 -158 -12z"/>
<path d="M2338 5015 c-108 -27 -192 -85 -229 -156 -82 -162 138 -292 373 -219
235 72 292 275 101 361 -56 26 -173 32 -245 14z"/>
<path d="M4507 5020 c-184 -47 -227 -186 -95 -305 64 -57 141 -86 244 -93 327
-19 392 264 87 378 -63 24 -181 34 -236 20z"/>
<path d="M1401 4765 c-68 -19 -109 -44 -154 -95 -134 -147 62 -289 271 -195
74 33 138 97 147 149 9 46 -19 104 -63 129 -43 25 -134 31 -201 12z"/>
<path d="M5457 4766 c-111 -40 -127 -137 -38 -226 139 -139 411 -116 411 36 0
74 -92 159 -205 189 -72 18 -118 19 -168 1z"/>
</g>
</svg>
